<svg width="24" height="24" xmlns="http://www.w3.org/2000/svg"><path d="M0,0 L8,0 L8,2 L10,2 L10,4 L6,4 L6,2 L2,2 L2,10 L6,10 L6,8 L10,8 L10,10 L8,10 L8,12 L0,12 L0,10 L-2,10 L-2,2 L0,2 Z " fill="#212121" transform="translate(12,9)"/><path d="M0,0 L2,0 L2,8 L3,8 L3,9 L4,9 L4,10 L6,10 L6,9 L7,9 L7,12 L6,12 L6,13 L4,13 L4,12 L3,12 L3,11 L2,11 L2,10 L1,10 L1,9 L0,9 Z " fill="#212121" transform="translate(2,2)"/><path d="M0,0 L2,0 L2,7 L1,7 L1,8 L0,8 Z " fill="#212121" transform="translate(10,2)"/><path d="M0,0 L1,0 L1,1 L0,1 Z " fill="#212121" transform="translate(9,10)"/></svg>