<?xml version="1.0" encoding="UTF-8"?>
<svg version="1.1" xmlns="http://www.w3.org/2000/svg" width="24" height="24">
	<path d="M11.65 6.35 9.29 8.71a1 1 0 0 0-.29.7v5.18c0 .26.1.52.3.7l2.35 2.36c.2.2.5.2.7 0l2.36-2.36a1 1 0 0 0 .29-.7V9.4a1 1 0 0 0-.3-.7l-2.35-2.36a.5.5 0 0 0-.7 0Z" fill="#FFFFFF"/>
	<path d="M 10.95 1.4 a 1.59 1.59 0 0 1 2.1 0 l 4.9 4 A 3.37 3.37 0 0 1 19 8 v 8 c 0 1.07 -0.4 2.06 -1.05 2.6 l -4.9 4 c -0.65 0.53 -1.45 0.53 -2.1 0 l -4.9 -4 A 3.37 3.37 0 0 1 5 16 V 8 c 0 -1.07 0.4 -2.06 1.05 -2.6 l 4.9 -4 Z M 7.32 6.95 L 12 3.12 l 4.68 3.83 c 0.07 0.06 0.32 0.4 0.32 1.05 v 8 c 0 0.65 -0.25 1 -0.32 1.05 L 12 20.88 l -4.68 -3.83 C 7.25 16.99 7 16.65 7 16 V 8 c 0 -0.65 0.25 -1 0.32 -1.05 Z" fill="#FFFFFF" fill-rule="evenodd"/>
</svg>
