<?xml version="1.0" encoding="UTF-8"?>
<svg version="1.1" xmlns="http://www.w3.org/2000/svg" width="24" height="24">
<path d="M0,0 L1,0 L1,1 L2,1 L2,2 L3,2 L3,3 L4,3 L4,4 L5,4 L5,5 L6,5 L6,6 L7,6 L7,18 L6,18 L6,19 L5,19 L5,20 L4,20 L4,21 L3,21 L3,22 L2,22 L2,23 L1,23 L1,24 L0,24 L0,23 L-1,23 L-1,22 L-2,22 L-2,21 L-3,21 L-3,20 L-4,20 L-4,19 L-5,19 L-5,18 L-6,18 L-6,6 L-5,6 L-5,5 L-4,5 L-4,4 L-3,4 L-3,3 L-2,3 L-2,2 L-1,2 L-1,1 L0,1 Z M0,3 L0,4 L-1,4 L-1,5 L-2,5 L-2,6 L-3,6 L-3,7 L-4,7 L-4,17 L-3,17 L-3,18 L-2,18 L-2,19 L-1,19 L-1,20 L0,20 L0,21 L1,21 L1,20 L2,20 L2,19 L3,19 L3,18 L4,18 L4,17 L5,17 L5,7 L4,7 L4,6 L3,6 L3,5 L2,5 L2,4 L1,4 L1,3 Z " fill="#FFFFFF" transform="translate(12,0)"/>
<path d="M0,0 L1,0 L1,8 L0,8 Z " fill="#FFFFFF" transform="translate(14,8)"/>
<path d="M0,0 L1,0 L1,8 L0,8 Z " fill="#FFFFFF" transform="translate(10,8)"/>
<path d="M0,0 L1,0 L1,1 L0,1 Z " fill="#FFFFFF" transform="translate(12,17)"/>
<path d="M0,0 L1,0 L1,1 L0,1 Z " fill="#FFFFFF" transform="translate(13,16)"/>
<path d="M0,0 L1,0 L1,1 L0,1 Z " fill="#FFFFFF" transform="translate(11,16)"/>
<path d="M0,0 L1,0 L1,1 L0,1 Z " fill="#FFFFFF" transform="translate(13,7)"/>
<path d="M0,0 L1,0 L1,1 L0,1 Z " fill="#FFFFFF" transform="translate(11,7)"/>
<path d="M0,0 L1,0 L1,1 L0,1 Z " fill="#FFFFFF" transform="translate(12,6)"/>
</svg>
