<svg xmlns="http://www.w3.org/2000/svg" width="24" height="24" fill="none" viewBox="0 0 24 24" id="discord-nitro">
  <path fill="#000" fill-rule="evenodd" d="M15 5.75C11.5482 5.75 8.75 8.54822 8.75 12C8.75 15.4518 11.5482 18.25 15 18.25C15.9599 18.25 16.8674 18.0341 17.6782 17.6489C18.0523 17.4712 18.4997 17.6304 18.6774 18.0045C18.8552 18.3787 18.696 18.8261 18.3218 19.0038C17.3141 19.4825 16.1873 19.75 15 19.75C10.7198 19.75 7.25 16.2802 7.25 12C7.25 7.71979 10.7198 4.25 15 4.25C19.2802 4.25 22.75 7.71979 22.75 12C22.75 12.7682 22.638 13.5115 22.429 14.2139C22.3108 14.6109 21.8932 14.837 21.4962 14.7188C21.0992 14.6007 20.8731 14.1831 20.9913 13.7861C21.1594 13.221 21.25 12.6218 21.25 12C21.25 8.54822 18.4518 5.75 15 5.75Z" clip-rule="evenodd"></path>
  <path fill="#000" fill-rule="evenodd" d="M5.25 5C5.25 4.58579 5.58579 4.25 6 4.25H15C15.4142 4.25 15.75 4.58579 15.75 5 15.75 5.41421 15.4142 5.75 15 5.75H6C5.58579 5.75 5.25 5.41421 5.25 5zM4.75 8.5C4.75 8.08579 5.08579 7.75 5.5 7.75H8.5C8.91421 7.75 9.25 8.08579 9.25 8.5 9.25 8.91421 8.91421 9.25 8.5 9.25H5.5C5.08579 9.25 4.75 8.91421 4.75 8.5zM1.25 8.5C1.25 8.08579 1.58579 7.75 2 7.75H3.5C3.91421 7.75 4.25 8.08579 4.25 8.5 4.25 8.91421 3.91421 9.25 3.5 9.25H2C1.58579 9.25 1.25 8.91421 1.25 8.5zM3.25 12.5C3.25 12.0858 3.58579 11.75 4 11.75H8C8.41421 11.75 8.75 12.0858 8.75 12.5 8.75 12.9142 8.41421 13.25 8 13.25H4C3.58579 13.25 3.25 12.9142 3.25 12.5zM12.376 8.58397C12.5151 8.37533 12.7492 8.25 13 8.25H17C17.2508 8.25 17.4849 8.37533 17.624 8.58397L19.624 11.584C19.792 11.8359 19.792 12.1641 19.624 12.416L17.624 15.416C17.4849 15.6247 17.2508 15.75 17 15.75H13C12.7492 15.75 12.5151 15.6247 12.376 15.416L10.376 12.416C10.208 12.1641 10.208 11.8359 10.376 11.584L12.376 8.58397zM13.4014 9.75L11.9014 12 13.4014 14.25H16.5986L18.0986 12 16.5986 9.75H13.4014z" clip-rule="evenodd"></path>
</svg>
